# xmcd
#
# Track frame offsets:
#	150
#	12737
#	23617
#	28350
#	42865
#	50372
#	59140
#	65957
#	75560
#	81987
#	94137
#	104222
#	114255
#	124220
#	134522
#	145040
#	154460
#	175167
#	180865
#	193972
#	200635
#	210235
#	220452
#	228680
#	239495
#	250960
#	257857
#	265755
#
# Disc length: 3625 seconds
#
# Revision: 0
# Processed by: cddbd v1.5.2PL0 Copyright (c) Steve Scherf et al.
# Submitted via: dBpowerAMP V4.0
#
DISCID=b20e271c
DTITLE=Lente Lajos - Felhõ szállt a nagyerdõre
DYEAR=1900
DGENRE=
TTITLE0=Kisfalu a dunántúlon
TTITLE1=Kigyúlt egy csillag a Balatonon
TTITLE2=Kicsi pince, boros hordó
TTITLE3=Azt hiszed, hogy boldog vagy már
TTITLE4=Hûvösebb van már, õsz kezd lenni
TTITLE5=Badacsonyi kéknyelû
TTITLE6=Írt nekem a szeretõm
TTITLE7=Kiballagok a vasúthoz
TTITLE8=Túl a dunán van egy tó
TTITLE9=Felhõ szállt a nagyerdõre
TTITLE10=Száll az ének, szól a nóta
TTITLE11=Tombolj vihar, tépd a fákat
TTITLE12=Bihari csárdás
TTITLE13=Húsznak tíz a fele
TTITLE14=Ne hallgass az emberekre
TTITLE15=Jegenyefán fészket rak a csóka
TTITLE16=Vén cigány
TTITLE17=Szabad, szabad, szabad
TTITLE18=Ha én gazdag lennék
TTITLE19=Sólj, szólj csalogány
TTITLE20=Nincs a földön olyan ember
TTITLE21=Életemben csak két nõt szerettem
TTITLE22=Hallod-e, nótás füttyös szép madár
TTITLE23=Szebben ragyog a két szemed
TTITLE24=Befogom a lovam
TTITLE25=Julcsa, ha kimegyen a piacra
TTITLE26=Szép a szõke, szép a barna
TTITLE27=Akkor voltam boldog
EXTD=
EXTT0=
EXTT1=
EXTT2=
EXTT3=
EXTT4=
EXTT5=
EXTT6=
EXTT7=
EXTT8=
EXTT9=
EXTT10=
EXTT11=
EXTT12=
EXTT13=
EXTT14=
EXTT15=
EXTT16=
EXTT17=
EXTT18=
EXTT19=
EXTT20=
EXTT21=
EXTT22=
EXTT23=
EXTT24=
EXTT25=
EXTT26=
EXTT27=
PLAYORDER=
